<?xml version="1.0" encoding="utf-8"?>
<!-- Generator: Adobe Illustrator 24.0.1, SVG Export Plug-In . SVG Version: 6.00 Build 0)  -->
<svg version="1.1" id="Layer_1" xmlns="http://www.w3.org/2000/svg" xmlns:xlink="http://www.w3.org/1999/xlink" x="0px" y="0px"
	 viewBox="0 0 223.2 76.6" style="enable-background:new 0 0 223.2 76.6;" xml:space="preserve">
<style type="text/css">
	.st0{display:none;}
	.st1{fill:none;}
	.st2{fill:#FFFFFF;}
	.st3{fill:#DE174F;}
</style>
<rect id="Background" class="st0" width="223.2" height="76.6"/>
<g id="Logo">
	<g>
		<rect x="5" y="4.3" class="st1" width="103.7" height="16.3"/>
		<path class="st2" d="M18.5,19.9H6.3V4.4h12.1c2.1,0,3.4,0.5,4.1,1.3c0.6,0.6,1,1.5,1,2.6c0,1-0.2,1.9-0.7,2.5
			c-0.4,0.5-1.2,0.9-2,1c0.9,0.1,1.9,0.7,2.6,1.5c0.4,0.5,0.6,1.4,0.6,2.3c0,1-0.3,2.2-0.9,2.8C22.2,19.5,20.6,19.9,18.5,19.9z
			 M16.8,8.6c-0.2-0.2-0.5-0.3-1-0.3h-3.4v2h3.4c0.5,0,0.9-0.1,1.1-0.4c0.1-0.2,0.2-0.4,0.2-0.6C17.1,9,17,8.8,16.8,8.6z M17.5,15.1
			c0-0.4-0.1-0.6-0.2-0.8c-0.2-0.2-0.5-0.3-0.9-0.3h-4v2.2h3.9c0.4,0,0.7-0.1,0.9-0.3C17.4,15.6,17.5,15.4,17.5,15.1z"/>
		<path class="st2" d="M25.1,19.9V4.4h14.7v4.4h-8.6v1.2h8.3v4.4h-8.3v1.2h8.7v4.3H25.1z"/>
		<path class="st2" d="M51.8,9v10.9h-6.3V9h-4.9V4.4h16.1V9H51.8z"/>
		<path class="st2" d="M68.4,9v10.9h-6.3V9h-4.9V4.4h16.1V9H68.4z"/>
		<path class="st2" d="M74.2,19.9V4.4h14.7v4.4h-8.6v1.2h8.3v4.4h-8.3v1.2H89v4.3H74.2z"/>
		<path class="st2" d="M106.4,12.7c-0.5,0.8-1.2,1.3-1.9,1.5l3.7,5.7h-6.9l-2.5-4.5h-2.3v4.5h-6.1V4.4h11.1c2.2,0,3.7,0.5,4.6,1.5
			c0.8,0.9,1.1,2,1.1,3.7C107.2,10.9,106.9,12,106.4,12.7z M101,9.3c-0.2-0.4-0.6-0.5-1.1-0.5h-3.4v2.4h3.4c0.4,0,0.9-0.1,1.1-0.4
			c0.1-0.2,0.2-0.6,0.2-0.8C101.2,9.8,101.1,9.5,101,9.3z"/>
	</g>
	<g>
		
			<rect x="1.9" y="19.7" transform="matrix(0.9898 -0.1428 0.1428 0.9898 -3.8142 15.9622)" class="st1" width="214.7" height="29.7"/>
		<path class="st3" d="M13.2,36.1c7.7-1.1,19.9,3.5,24-5.4l0.4,0.5c-0.8,11.5-5.1,12.1-10.3,10.3l-0.5,16.9
			c-2.3,3.1-8.3,5.1-10.6,5.1l0.8-26.1c-2.1-0.5-4-0.6-5.7,0.1c1.4,0.1,2.6,1.2,2.8,2.8c0.3,2.3-1.6,4.8-4,5.2
			c-2,0.3-3.8-1.1-3.7-3.3C6.7,38.5,10,36.5,13.2,36.1z"/>
		<path class="st3" d="M61.5,45.4c0.9,6-3.1,11.9-13.6,13.4c-8.3,1.2-12.3-2-13-6.7c-0.9-5.9,3.1-11.9,13.6-13.4
			C56.9,37.6,60.9,40.8,61.5,45.4z M51.1,44c-0.3-1.9-0.7-4.5-2.6-4.3c-3.1,0.4-3.8,9.3-3.1,14.1c0.3,1.9,0.7,4.5,2.6,4.2
			C51.1,57.6,51.9,49.3,51.1,44z"/>
		<path class="st3" d="M51.1,69.9c0.3,1.8,3.5,1.3,6.3,0.7l0.3,0.5C54.4,72,46.2,73.6,45.4,68c-0.8-5.7,6.1-8.2,10.7-8.8
			c11.8-1.7,29.3-2.5,29.1-3.6c-0.2-1.4-3.3-2.6-6.1-3.5c-0.7,0.2-1.4,0.4-2.6,0.6c-6.8,1-12.4-1.9-13.1-6.3
			c-0.8-5.2,5.7-10.5,13.6-11.6c2-0.3,3.9-0.2,5.6,0c1.3-2.7,3.2-5.8,5.4-6.1c1.3-0.2,2.4,0.7,2.3,2.1c0,1.4-1.4,2.8-2.7,3
			c-1.6,0.2-2.1-1.3-2.2-2.2c-0.7,0.8-1.4,2-2,3.3c3.6,0.8,6.2,3,6.6,5.9c0.5,3.3-2,8.2-9.7,10.9c6.2,1.4,9.8,4.3,10.2,7.3
			c0.5,3.2-1.9,6-7.7,6.9c-9,1.3-20.5,0.2-27.2,1.2C51.8,67.5,50.9,68.8,51.1,69.9z M79.6,39.3c-0.3-1.9-1-4-2.6-3.7
			c-2.9,0.4-3.6,9.1-3.1,12.2c0.3,1.9,1,4.1,2.6,3.9C79.4,51.3,80.1,42.4,79.6,39.3z"/>
		<path class="st3" d="M101.7,44.2c0.6,2.5,2.6,4.1,6.8,3.5c3.2-0.5,7.1-2.2,10.9-5.1l0,0.8c-3.4,2.9-8.4,6.2-16.4,7.3
			c-5.4,0.8-10.3-0.3-11.2-5.9c-1.2-8.1,8-13.5,14.5-14.5c3.2-0.5,9.4-0.4,10,4C117.2,40.1,108.3,43.8,101.7,44.2z M101.6,43.5
			c5.7-0.9,7.4-6.1,6.9-9.5c-0.2-1.6-1-2.8-2.1-2.7C104,31.7,100.7,38.7,101.6,43.5z"/>
		<path class="st3" d="M130.1,28.3l-0.4,12.4c-0.1,2.1,0.7,2.5,1.7,2.4c1.9-0.3,3.5-1.4,5.1-2.9l0,0.8c-3.3,3.8-7.3,6-11.1,6.5
			c-4,0.6-6.2-2.5-6.1-5.4l0.4-12.4l-1.3,0.2l0-0.9l2.2-0.3l0-1.6c2.3-3.1,7.5-5,9.7-5l-0.2,5.3l4.9-0.7l0,0.9L130.1,28.3z"/>
		<path class="st3" d="M146.6,43.4c-2,1.2-8,2.4-10.4,2.3l0.8-26.6c-6.6,0.2-12.1-1.5-12.7-5.5c-0.4-2.6,1.9-5.4,4.9-5.9
			c1.6-0.2,4.3,0.4,4.5,2.3c0.2,1.5-1,3-2.6,3.3c-1.2,0.2-2.2-0.6-2.4-1.8s0.6-2.4,1.6-2.9c-0.4-0.1-0.8-0.1-1.2,0
			c-2.4,0.4-4.4,2.7-4.1,4.7c0.5,3.6,5.7,5.1,11.9,5l0,0c0.1-5.6,6.8-9.9,11.6-10.6c2.8-0.4,4.9,0.7,5.3,3.1
			c0.4,3.1-2.5,5.6-6.5,6.7L147,29c3.3-2.8,6.4-5.4,9.8-5.9c5.6-0.8,6,4,6.1,5.6l0.5,7.4c0.1,1.7,0.7,2.2,1.7,2
			c1.8-0.3,3.6-1.6,4.9-2.8l0,0.8c-3.2,3.7-7.2,6-11.1,6.5c-5.5,0.8-5.9-3.9-6.1-5.6l-0.3-8c0-0.9-0.7-1.1-1.6-1
			c-1.4,0.2-2.9,1.3-4,2L146.6,43.4z M147.4,16.7c3.7-1.5,4.4-4.1,4.2-5.1c-0.1-0.9-0.9-1.6-1.9-1.5c-1,0.1-2,0.9-2.2,2.3
			L147.4,16.7z"/>
		<path class="st3" d="M179.2,33c0.6,2.5,2.6,4.1,6.8,3.5c3.2-0.5,7.1-2.2,10.9-5.1l0,0.8c-3.4,2.9-8.4,6.2-16.4,7.3
			c-5.4,0.8-10.3-0.3-11.2-5.9c-1.2-8.1,8-13.5,14.5-14.5c3.2-0.5,9.4-0.4,10,4C194.7,28.9,185.8,32.6,179.2,33z M179.1,32.3
			c5.7-0.9,7.4-6.1,7-9.5c-0.2-1.6-1-2.8-2.1-2.7C181.5,20.5,178.2,27.5,179.1,32.3z"/>
		<path class="st3" d="M207,34.6c-2,1.2-8,2.4-10.4,2.3l0.6-19.4c2.2-0.6,8.1-0.3,10.3,2.1l0,1.5c1.7-4.7,4.3-6.2,6.3-6.5
			c2-0.3,4.2,0.6,4.5,2.8c0.3,2.3-1.6,4.8-4,5.1c-1.8,0.3-3.5-0.9-3.8-2.8c-0.2-1.1,0.2-2.2,1-3.2c-2.1,1.1-4.1,5.9-4.2,8.4
			L207,34.6z"/>
	</g>
	<g>
		<rect x="100.8" y="60" class="st1" width="44.9" height="14"/>
		<path class="st2" d="M101.9,71.4V60.1h3.5v8.5h5.5v2.8H101.9z"/>
		<path class="st2" d="M111.9,71.4V60.1h3.6v11.3H111.9z"/>
		<path class="st2" d="M124.8,71.4h-4.2l-4.3-11.3h3.7l2.8,7.8l2.8-7.8h3.6L124.8,71.4z"/>
		<path class="st2" d="M130,71.4V60.1h9.7v2.7h-6.2v1.6h6v2.7h-6v1.7h6.3v2.6H130z"/>
		<path class="st2" d="M144.3,67.6h-3.1l-0.5-7.5h4L144.3,67.6z M141.1,71.4v-3.2h3.4v3.2H141.1z"/>
	</g>
</g>
</svg>
